<svg xmlns="http://www.w3.org/2000/svg" width="512" height="512" viewBox="0 0 512 512">
  <defs>
    <linearGradient id="bg" x1="0" y1="0" x2="1" y2="1">
      <stop offset="0%" stop-color="#dc7b42"/>
      <stop offset="100%" stop-color="#9a431d"/>
    </linearGradient>
  </defs>
  <rect width="512" height="512" rx="112" fill="url(#bg)"/>
  <path d="M86 330c0-24 20-44 44-44h252c24 0 44 20 44 44v18c0 19-15 34-34 34h-18v30c0 10-8 18-18 18h-18c-10 0-18-8-18-18v-30H192v30c0 10-8 18-18 18h-18c-10 0-18-8-18-18v-30h-20c-18 0-32-14-32-32v-26z" fill="#fff6ef"/>
  <path d="M143 286l30-96c8-27 33-45 61-45h44c28 0 53 18 61 45l30 96H143z" fill="#2e221a"/>
  <rect x="186" y="176" width="140" height="58" rx="18" fill="#fff6ef"/>
  <circle cx="174" cy="334" r="24" fill="#2e221a"/>
  <circle cx="338" cy="334" r="24" fill="#2e221a"/>
  <path d="M112 120l46-26 24 42-46 26z" fill="#ffdba5"/>
  <path d="M336 365l26-70 46 18-26 70z" fill="#ffdba5"/>
</svg>
